A:\Common\BMMB\PROJECTS\STRATO\DataSTRATO\DataSTRATO\0021~016 ID\0021~aa~ID 016\Standing_STRATO_ID_16.mot
version=1
nRows=105
nColumns=10
inDegrees=yes

BTS OpenSim export

endheader
time	[P0A]_force_vx	[P0A]_force_vy	[P0A]_force_vz	[P0A]_force_px	[P0A]_force_py	[P0A]_force_pz	[P0A]_torque_x	[P0A]_torque_y	[P0A]_torque_z
0.000000	7.06221342	770.89758301	-1.86123121	0.19631594	0.00008881	0.34249935	-0.00038097	-1.25482535	-0.00022233
0.004000	7.29302311	771.12139893	-2.11588717	0.19633166	0.00008880	0.34249541	-0.00037368	-1.23082876	-0.00021808
0.008000	7.14167261	771.08850098	-2.11771679	0.19633667	0.00008880	0.34251758	-0.00035840	-1.18048251	-0.00020916
0.012000	7.18369198	770.98773193	-2.11150718	0.19636007	0.00008878	0.34256354	-0.00036098	-1.18899024	-0.00021067
0.016000	7.22364712	771.00189209	-2.10317087	0.19637211	0.00008877	0.34258467	-0.00036342	-1.19701731	-0.00021209
0.020000	7.29088402	770.87097168	-2.09491086	0.19639629	0.00008876	0.34262276	-0.00036844	-1.21357274	-0.00021502
0.024000	7.29719639	770.81658936	-2.08232141	0.19639857	0.00008875	0.34264895	-0.00036797	-1.21200168	-0.00021474
0.028000	7.30560684	770.75195313	-2.06973839	0.19641691	0.00008874	0.34267876	-0.00036770	-1.21113789	-0.00021459
0.032000	7.31823444	770.68945313	-2.05085754	0.19643405	0.00008873	0.34270862	-0.00036753	-1.21055686	-0.00021449
0.036000	7.32667971	770.62322998	-2.01936030	0.19645272	0.00008872	0.34273624	-0.00036778	-1.21137369	-0.00021463
0.040000	7.32250404	770.56506348	-1.99414349	0.19647071	0.00008871	0.34276396	-0.00036749	-1.21043313	-0.00021446
0.044000	7.31201506	770.53021240	-1.97731662	0.19648795	0.00008870	0.34278750	-0.00036681	-1.20817709	-0.00021407
0.048000	7.30153227	770.50665283	-1.95838702	0.19650595	0.00008869	0.34280813	-0.00036580	-1.20487726	-0.00021348
0.052000	7.29526043	770.49114990	-1.93736196	0.19652456	0.00008868	0.34282899	-0.00036509	-1.20253670	-0.00021307
0.056000	7.29318571	770.48590088	-1.92054772	0.19654420	0.00008867	0.34284917	-0.00036414	-1.19939721	-0.00021251
0.060000	7.28901243	770.48883057	-1.90372825	0.19656381	0.00008867	0.34286806	-0.00036366	-1.19782197	-0.00021223
0.064000	7.28271914	770.49273682	-1.89741158	0.19658452	0.00008866	0.34288627	-0.00036350	-1.19727421	-0.00021213
0.068000	7.27850533	770.49963379	-1.90370917	0.19660546	0.00008865	0.34290439	-0.00036330	-1.19662428	-0.00021202
0.072000	7.28481054	770.51403809	-1.90582097	0.19662875	0.00008864	0.34291899	-0.00036421	-1.19962144	-0.00021255
0.076000	7.29321194	770.52514648	-1.91004002	0.19665314	0.00008863	0.34293407	-0.00036555	-1.20402586	-0.00021333
0.080000	7.29740667	770.53112793	-1.91635239	0.19667754	0.00008862	0.34295052	-0.00036680	-1.20817077	-0.00021406
0.084000	7.29319906	770.54248047	-1.92054725	0.19670324	0.00008861	0.34296423	-0.00036805	-1.21228993	-0.00021479
0.088000	7.28689671	770.55889893	-1.92263412	0.19672959	0.00008860	0.34297457	-0.00037030	-1.21969378	-0.00021611
0.092000	7.28691244	770.57421875	-1.91632617	0.19675630	0.00008859	0.34298134	-0.00037179	-1.22460604	-0.00021698
0.096000	7.28694820	770.58654785	-1.89951169	0.19678321	0.00008858	0.34298831	-0.00037278	-1.22784245	-0.00021755
0.100000	7.28279972	770.59906006	-1.87217999	0.19681045	0.00008857	0.34299341	-0.00037390	-1.23154354	-0.00021821
0.104000	7.27235174	770.60748291	-1.84063411	0.19683659	0.00008856	0.34299693	-0.00037444	-1.23331106	-0.00021852
0.108000	7.26612043	770.60888672	-1.80069029	0.19686255	0.00008855	0.34299782	-0.00037491	-1.23485696	-0.00021879
0.112000	7.26409292	770.61053467	-1.76075470	0.19688903	0.00008854	0.34299248	-0.00037533	-1.23627114	-0.00021904
0.116000	7.26627970	770.61022949	-1.71452236	0.19691305	0.00008854	0.34298331	-0.00037491	-1.23487282	-0.00021880
0.120000	7.27687120	770.59063721	-1.66620755	0.19693689	0.00008853	0.34297284	-0.00037394	-1.23169065	-0.00021823
0.124000	7.27693892	770.57214355	-1.62628126	0.19695984	0.00008853	0.34296238	-0.00037325	-1.22941291	-0.00021783
0.128000	7.27069235	770.56079102	-1.59264612	0.19698283	0.00008852	0.34294748	-0.00037328	-1.22950280	-0.00021784
0.132000	7.25812054	770.55541992	-1.56950819	0.19700611	0.00008852	0.34292912	-0.00037298	-1.22850573	-0.00021767
0.136000	7.25395632	770.54718018	-1.54638720	0.19702986	0.00008852	0.34290996	-0.00037270	-1.22759545	-0.00021751
0.140000	7.24137974	770.54595947	-1.52745330	0.19705318	0.00008851	0.34288770	-0.00037230	-1.22628200	-0.00021727
0.144000	7.22039557	770.54772949	-1.50850213	0.19707564	0.00008851	0.34286568	-0.00037255	-1.22709382	-0.00021742
0.148000	7.19727850	770.54534912	-1.50636232	0.19710022	0.00008851	0.34284407	-0.00037385	-1.23136890	-0.00021817
0.152000	7.16154242	770.56036377	-1.51050043	0.19712566	0.00008850	0.34282169	-0.00037541	-1.23652697	-0.00021909
0.156000	7.12580729	770.57135010	-1.51463866	0.19715182	0.00008850	0.34279662	-0.00037638	-1.23972082	-0.00021965
0.160000	7.09427595	770.57617188	-1.51668417	0.19717769	0.00008850	0.34277207	-0.00037663	-1.24054301	-0.00021980
0.164000	7.07537699	770.57202148	-1.50614309	0.19720237	0.00008849	0.34274879	-0.00037735	-1.24292266	-0.00022022
0.168000	7.05017328	770.57281494	-1.49558842	0.19722620	0.00008849	0.34272477	-0.00037845	-1.24653685	-0.00022086
0.172000	7.02706099	770.57379150	-1.49134290	0.19724882	0.00008849	0.34270060	-0.00037976	-1.25084662	-0.00022163
0.176000	7.01024914	770.57476807	-1.48921096	0.19727065	0.00008848	0.34267643	-0.00038054	-1.25340974	-0.00022208
0.180000	6.99976015	770.57666016	-1.47868288	0.19729163	0.00008848	0.34265199	-0.00038065	-1.25376880	-0.00022214
0.184000	6.99978924	770.57263184	-1.46186948	0.19731076	0.00008848	0.34262750	-0.00038037	-1.25285673	-0.00022198
0.188000	7.01032925	770.56939697	-1.44507504	0.19732909	0.00008848	0.34260461	-0.00038141	-1.25628853	-0.00022259
0.192000	7.02717018	770.56823730	-1.43039286	0.19734631	0.00008848	0.34258014	-0.00038301	-1.26155782	-0.00022352
0.196000	7.03768158	770.57220459	-1.43041062	0.19736362	0.00008848	0.34255317	-0.00038470	-1.26711476	-0.00022451
0.200000	7.04608059	770.56896973	-1.43462932	0.19737932	0.00008848	0.34252545	-0.00038597	-1.27131402	-0.00022525
0.204000	7.05870438	770.55853271	-1.42624629	0.19739529	0.00008848	0.34249678	-0.00038685	-1.27420247	-0.00022576
0.208000	7.06923532	770.54223633	-1.41155612	0.19741076	0.00008848	0.34246588	-0.00038798	-1.27790713	-0.00022642
0.212000	7.06294870	770.52569580	-1.39893687	0.19742441	0.00008848	0.34243205	-0.00038890	-1.28094137	-0.00022696
0.216000	7.04613829	770.50549316	-1.39260530	0.19743691	0.00008848	0.34239691	-0.00038986	-1.28412533	-0.00022752
0.220000	7.02303267	770.48010254	-1.37995708	0.19744720	0.00008849	0.34235981	-0.00039022	-1.28530526	-0.00022773
0.224000	6.99363327	770.45483398	-1.36099207	0.19745602	0.00008849	0.34232077	-0.00039023	-1.28532362	-0.00022773
0.228000	6.96216106	770.42535400	-1.32521057	0.19746342	0.00008850	0.34227961	-0.00038959	-1.28321564	-0.00022736
0.232000	6.93490505	770.40515137	-1.28523242	0.19747123	0.00008850	0.34223565	-0.00038879	-1.28059697	-0.00022690
0.236000	6.90343285	770.39233398	-1.25155020	0.19747785	0.00008851	0.34218934	-0.00038837	-1.27921319	-0.00022665
0.240000	6.87406349	770.38836670	-1.21997225	0.19748433	0.00008851	0.34214133	-0.00038715	-1.27520120	-0.00022594
0.244000	6.86152840	770.38671875	-1.17791545	0.19749044	0.00008852	0.34209147	-0.00038681	-1.27407277	-0.00022574
0.248000	6.85953045	770.38598633	-1.12116659	0.19749670	0.00008853	0.34204087	-0.00038656	-1.27322805	-0.00022559
0.252000	6.85963392	770.39764404	-1.06652141	0.19750430	0.00008854	0.34198746	-0.00038584	-1.27085888	-0.00022517
0.256000	6.86183691	770.41204834	-1.01398242	0.19751270	0.00008854	0.34193346	-0.00038512	-1.26851094	-0.00022476
0.260000	6.87033224	770.42254639	-0.96776146	0.19752082	0.00008855	0.34188226	-0.00038434	-1.26594400	-0.00022430
0.264000	6.88513851	770.42266846	-0.91735005	0.19752951	0.00008856	0.34183109	-0.00038403	-1.26489747	-0.00022411
0.268000	6.90204668	770.41369629	-0.86484313	0.19753845	0.00008856	0.34178081	-0.00038258	-1.26014578	-0.00022327
0.272000	6.91894865	770.39660645	-0.81443912	0.19754694	0.00008857	0.34173387	-0.00038192	-1.25797093	-0.00022289
0.276000	6.92952442	770.38452148	-0.77663261	0.19755635	0.00008857	0.34168783	-0.00038067	-1.25382864	-0.00022215
0.280000	6.93377638	770.37652588	-0.74932241	0.19756642	0.00008858	0.34163934	-0.00037937	-1.24957573	-0.00022140
0.284000	6.94223070	770.35650635	-0.71992105	0.19757481	0.00008858	0.34159148	-0.00037850	-1.24669194	-0.00022089
0.288000	6.94648075	770.32720947	-0.69051218	0.19758241	0.00008859	0.34154385	-0.00037719	-1.24237144	-0.00022012
0.292000	6.94862890	770.31427002	-0.66319799	0.19758956	0.00008860	0.34149313	-0.00037586	-1.23799419	-0.00021935
0.296000	6.93393898	770.31665039	-0.65056121	0.19759344	0.00008861	0.34144077	-0.00037394	-1.23166668	-0.00021823
0.300000	6.90873671	770.33422852	-0.64210522	0.19759472	0.00008862	0.34138697	-0.00037293	-1.22834396	-0.00021764
0.304000	6.88142967	770.35504150	-0.63574624	0.19759403	0.00008863	0.34133050	-0.00037148	-1.22358751	-0.00021680
0.308000	6.86044216	770.36840820	-0.62099445	0.19759110	0.00008864	0.34127507	-0.00037009	-1.21899211	-0.00021598
0.312000	6.84576702	770.38079834	-0.60205156	0.19758555	0.00008865	0.34122220	-0.00036802	-1.21218181	-0.00021477
0.316000	6.82267904	770.41046143	-0.58939451	0.19757879	0.00008866	0.34116781	-0.00036548	-1.20380521	-0.00021329
0.320000	6.80168295	770.45129395	-0.58304447	0.19757062	0.00008867	0.34111220	-0.00036390	-1.19860697	-0.00021237
0.324000	6.78488636	770.48303223	-0.57880527	0.19756143	0.00008868	0.34105742	-0.00036353	-1.19740391	-0.00021216
0.328000	6.79124212	770.50122070	-0.55359560	0.19755307	0.00008870	0.34100509	-0.00036370	-1.19795084	-0.00021225
0.332000	6.82072687	770.51153564	-0.52422690	0.19754578	0.00008871	0.34095481	-0.00036454	-1.20072162	-0.00021274
0.336000	6.85653687	770.52770996	-0.48436067	0.19753829	0.00008872	0.34090504	-0.00036575	-1.20469403	-0.00021345
0.340000	6.89025497	770.54931641	-0.44028589	0.19752967	0.00008873	0.34085205	-0.00036730	-1.20981586	-0.00021436
0.344000	6.92186356	770.57080078	-0.40041006	0.19752048	0.00008874	0.34079751	-0.00037013	-1.21912956	-0.00021601
0.348000	6.95979071	770.58227539	-0.35214198	0.19751018	0.00008875	0.34074441	-0.00037364	-1.23067641	-0.00021805
0.352000	7.00194454	770.58740234	-0.28917268	0.19749911	0.00008877	0.34069291	-0.00037677	-1.24100339	-0.00021988
0.356000	7.03781748	770.59161377	-0.21358357	0.19748545	0.00008878	0.34064072	-0.00037849	-1.24665654	-0.00022088
0.360000	7.05684710	770.60064697	-0.15267454	0.19746898	0.00008880	0.34058672	-0.00037936	-1.24952924	-0.00022139
0.364000	7.06116581	770.60681152	-0.09173909	0.19745056	0.00008881	0.34053189	-0.00037887	-1.24790800	-0.00022110
0.368000	7.06546640	770.61102295	-0.03921111	0.19743207	0.00008883	0.34047273	-0.00037789	-1.24469209	-0.00022053
0.372000	7.06554270	770.60803223	0.00281482	0.19741328	0.00008884	0.34041464	-0.00037561	-1.23718059	-0.00021920
0.376000	7.05721283	770.60797119	0.04485670	0.19739358	0.00008886	0.34035739	-0.00037188	-1.22489560	-0.00021703
0.380000	7.04677916	770.59704590	0.08900233	0.19737400	0.00008887	0.34030136	-0.00036752	-1.21053147	-0.00021448
0.384000	7.03633785	770.57873535	0.12894435	0.19735411	0.00008889	0.34024513	-0.00036282	-1.19504249	-0.00021174
0.388000	7.02798033	770.56250000	0.15837580	0.19733563	0.00008891	0.34018916	-0.00035879	-1.18176579	-0.00020939
0.392000	7.02805471	770.53918457	0.20250286	0.19731797	0.00008892	0.34013507	-0.00035591	-1.17230499	-0.00020771
0.396000	7.02814722	770.51501465	0.25713831	0.19729961	0.00008894	0.34008178	-0.00035363	-1.16476858	-0.00020637
0.400000	7.01772356	770.48254395	0.30969012	0.19727923	0.00008895	0.34003580	-0.00035129	-1.15706396	-0.00020501
0.404000	7.01151228	770.45080566	0.36643723	0.19725834	0.00008896	0.33999300	-0.00035023	-1.15358615	-0.00020439
0.408000	7.01370573	770.41424561	0.42316797	0.19723746	0.00008898	0.33995152	-0.00034996	-1.15267766	-0.00020423
0.412000	7.01798296	770.39056396	0.46728775	0.19721600	0.00008899	0.33990934	-0.00035032	-1.15388668	-0.00020445
0.416000	7.02224398	770.37829590	0.50090152	0.19719315	0.00008901	0.33986863	-0.00035125	-1.15694034	-0.00020499
